<svg width="22" height="25" viewBox="0 0 22 25" fill="none" xmlns="http://www.w3.org/2000/svg">
<path d="M4.42857 10.3571C4.42857 6.72777 7.3707 3.78564 11 3.78564V3.78564V3.78564C14.6293 3.78564 17.5714 6.72777 17.5714 10.3571V12.9285L20.8532 17.3042C20.9313 17.4083 20.9009 17.5573 20.7882 17.6225V17.6225C14.733 21.1259 7.26704 21.1259 1.21179 17.6225V17.6225C1.09913 17.5573 1.06871 17.4083 1.14681 17.3042L4.42857 12.9285V10.3571Z" stroke="#072F60" stroke-width="1.5" stroke-linejoin="round"/>
<path d="M14.7136 20.0002V20.5717C14.7136 22.4652 13.1786 24.0002 11.285 24.0002C9.39147 24.0002 7.85645 22.4652 7.85645 20.5717V20.0002" stroke="#072F60" stroke-width="1.5"/>
<path d="M12.5714 3.78564V2.82136C12.5714 2.11128 11.9958 1.53564 11.2857 1.53564C10.5756 1.53564 10 2.11128 10 2.82136V3.78564" stroke="#072F60" stroke-width="1.5"/>
</svg>
