<svg width="32" height="32" viewBox="0 0 32 32" fill="none" xmlns="http://www.w3.org/2000/svg">
<circle cx="16" cy="16" r="16" fill="url(#paint0_linear_138_15)"/>
<path d="M16.244 10.2578C18.1795 10.2578 18.4087 10.266 19.1699 10.2987C19.8773 10.3287 20.2593 10.4433 20.514 10.5388C20.8507 10.6643 21.0941 10.8171 21.3459 11.0599C21.6006 11.3055 21.7562 11.5374 21.8864 11.8621C21.9854 12.1076 22.1043 12.4787 22.1354 13.158C22.1693 13.8947 22.1778 14.1157 22.1778 15.9792C22.1778 17.8454 22.1693 18.0664 22.1354 18.8003C22.1043 19.4824 21.9854 19.8508 21.8864 20.0963C21.7562 20.421 21.5978 20.6556 21.3459 20.8984C21.0912 21.144 20.8507 21.2941 20.514 21.4196C20.2593 21.5151 19.8745 21.6297 19.1699 21.6597C18.4059 21.6924 18.1767 21.7006 16.244 21.7006C14.3085 21.7006 14.0793 21.6924 13.3181 21.6597C12.6107 21.6297 12.2287 21.5151 11.974 21.4196C11.6373 21.2941 11.3939 21.1413 11.1421 20.8984C10.8874 20.6529 10.7318 20.421 10.6016 20.0963C10.5026 19.8508 10.3837 19.4797 10.3526 18.8003C10.3186 18.0637 10.3101 17.8427 10.3101 15.9792C10.3101 14.113 10.3186 13.892 10.3526 13.158C10.3837 12.476 10.5026 12.1076 10.6016 11.8621C10.7318 11.5374 10.8902 11.3027 11.1421 11.0599C11.3967 10.8144 11.6373 10.6643 11.974 10.5388C12.2287 10.4433 12.6135 10.3287 13.3181 10.2987C14.0793 10.266 14.3085 10.2578 16.244 10.2578ZM16.244 9C14.2774 9 14.0312 9.00819 13.2587 9.04093C12.489 9.07367 11.9598 9.19371 11.5014 9.3656C11.0232 9.54568 10.6186 9.78304 10.2168 10.1732C9.81212 10.5606 9.56594 10.9508 9.37918 11.4092C9.20091 11.8539 9.0764 12.3614 9.04245 13.1035C9.00849 13.8511 9 14.0884 9 15.9846C9 17.8809 9.00849 18.1182 9.04245 18.8631C9.0764 19.6052 9.20091 20.1154 9.37918 20.5574C9.56594 21.0185 9.81212 21.4087 10.2168 21.7961C10.6186 22.1835 11.0232 22.4236 11.4986 22.601C11.9598 22.7728 12.4862 22.8929 13.2558 22.9256C14.0283 22.9584 14.2745 22.9666 16.2412 22.9666C18.2078 22.9666 18.454 22.9584 19.2265 22.9256C19.9962 22.8929 20.5253 22.7728 20.9837 22.601C21.4591 22.4236 21.8637 22.1835 22.2656 21.7961C22.6674 21.4087 22.9164 21.0185 23.1003 20.5601C23.2786 20.1154 23.4031 19.6079 23.437 18.8658C23.471 18.121 23.4795 17.8836 23.4795 15.9874C23.4795 14.0911 23.471 13.8538 23.437 13.1089C23.4031 12.3668 23.2786 11.8566 23.1003 11.4146C22.922 10.9508 22.6759 10.5606 22.2712 10.1732C21.8694 9.78577 21.4648 9.54568 20.9894 9.36833C20.5281 9.19644 20.0018 9.07639 19.2321 9.04365C18.4568 9.00819 18.2106 9 16.244 9Z" fill="white"/>
<path d="M16.244 12.3969C14.1896 12.3969 12.5229 14.004 12.5229 15.9847C12.5229 17.9655 14.1896 19.5726 16.244 19.5726C18.2983 19.5726 19.965 17.9655 19.965 15.9847C19.965 14.004 18.2983 12.3969 16.244 12.3969ZM16.244 18.312C14.9112 18.312 13.8303 17.2698 13.8303 15.9847C13.8303 14.6997 14.9112 13.6574 16.244 13.6574C17.5768 13.6574 18.6577 14.6997 18.6577 15.9847C18.6577 17.2698 17.5768 18.312 16.244 18.312Z" fill="white"/>
<path d="M20.9811 12.2553C20.9811 12.7191 20.5906 13.0928 20.1124 13.0928C19.6313 13.0928 19.2437 12.7163 19.2437 12.2553C19.2437 11.7915 19.6341 11.4177 20.1124 11.4177C20.5906 11.4177 20.9811 11.7942 20.9811 12.2553Z" fill="white"/>
<defs>
<linearGradient id="paint0_linear_138_15" x1="16" y1="0" x2="16" y2="32" gradientUnits="userSpaceOnUse">
<stop stop-color="#D01AFD"/>
<stop offset="1" stop-color="#FD1AA2"/>
</linearGradient>
</defs>
</svg>
