<svg width="32" height="32" viewBox="0 0 32 32" fill="none" xmlns="http://www.w3.org/2000/svg">
<circle cx="16" cy="16" r="16" fill="#1AB9FD"/>
<path d="M14.4027 22C19.6858 22 22.5754 17.3828 22.5754 13.3789C22.5754 13.2477 22.5754 13.1172 22.567 12.9872C23.1291 12.5583 23.6144 12.0272 24 11.4188C23.4758 11.664 22.9197 11.8247 22.3502 11.8955C22.9499 11.5169 23.3987 10.9213 23.613 10.2196C23.0492 10.5726 22.4324 10.8213 21.7891 10.9551C21.356 10.4693 20.7833 10.1477 20.1594 10.0399C19.5356 9.9321 18.8955 10.0442 18.3381 10.3589C17.7808 10.6735 17.3373 11.1732 17.0763 11.7805C16.8152 12.3878 16.7512 13.069 16.8942 13.7185C15.7522 13.6581 14.635 13.345 13.6152 12.7997C12.5953 12.2543 11.6956 11.4888 10.9744 10.5528C10.6071 11.2198 10.4946 12.0095 10.6598 12.7609C10.825 13.5124 11.2555 14.1692 11.8637 14.5975C11.4066 14.5834 10.9594 14.4533 10.56 14.2183V14.2567C10.5602 14.9562 10.7897 15.6342 11.2098 16.1756C11.6298 16.7169 12.2144 17.0884 12.8644 17.2269C12.4415 17.3486 11.9978 17.3663 11.5674 17.2789C11.7511 17.8809 12.1084 18.4073 12.5896 18.7846C13.0707 19.1619 13.6516 19.3711 14.251 19.3831C13.6554 19.8769 12.9734 20.242 12.244 20.4575C11.5146 20.673 10.752 20.7346 10 20.639C11.3136 21.5281 12.842 21.9998 14.4027 21.9976" fill="white"/>
</svg>
