<svg width="49" height="49" viewBox="0 0 49 49" fill="none" xmlns="http://www.w3.org/2000/svg">
<path fill-rule="evenodd" clip-rule="evenodd" d="M44.0996 21.233L49 24.4993C49 24.4993 45.2481 29.0059 44.9166 29.3996L47.3668 35.1161L40.8332 35.933C40.7427 36.935 41.6501 42.4665 41.6501 42.4665C41.6501 42.4665 35.5905 41.8809 35.1166 41.6496L33.4834 47.3661C33.4834 47.3661 28.2584 44.3132 27.7668 44.0997L23.6834 49C23.6834 49 20.417 45.7336 19.6 44.0997L13.8834 47.3661C13.8834 47.3661 12.4108 41.1078 12.2502 40.8326L6.53362 41.6495C6.53362 41.6495 7.20356 36.4252 7.35053 35.1161L1.63394 33.4829L4.90035 28.5826C4.22757 27.9315 0 24.4993 0 24.4993C0 24.4993 4.38993 20.4011 4.90035 19.599L2.45018 13.8825C2.45018 13.8825 7.45407 12.4754 8.16677 12.2493L7.34986 6.53279C7.34986 6.53279 12.7965 7.16968 13.8834 7.34969L15.5166 1.63318C15.5166 1.63318 20.9962 3.92101 21.2332 4.08332L25.3166 0C25.3166 0 28.4487 3.19403 29.4 4.08332L35.1166 1.63318L35.9335 8.16665C36.7703 8.20254 42.467 7.34975 42.467 7.34975L41.6501 13.8832C42.3998 14.2011 47.3667 16.3334 47.3667 16.3334C47.3667 16.3328 44.4078 20.6867 44.0996 21.233ZM28.1742 14.291C28.1742 12.4875 26.37 14.291 28.1742 14.291C26.3706 14.291 28.1742 16.0951 28.1742 14.291C28.1742 16.0945 29.9783 14.291 28.1742 14.291C29.9783 14.291 28.1742 12.4869 28.1742 14.291Z" fill="#FF4F31"/>
<path d="M11.8028 30.112C11.1868 30.112 10.8788 29.7947 10.8788 29.16V21.082C10.8788 20.4473 11.1961 20.13 11.8308 20.13H16.7168C17.2021 20.13 17.4448 20.3633 17.4448 20.83C17.4448 21.3153 17.2021 21.558 16.7168 21.558H12.6708V24.344H16.4228C16.9081 24.344 17.1508 24.5773 17.1508 25.044C17.1508 25.5293 16.9081 25.772 16.4228 25.772H12.6708V29.16C12.6708 29.7947 12.3814 30.112 11.8028 30.112ZM19.3314 30.112C18.7341 30.112 18.4354 29.8133 18.4354 29.216V23.924C18.4354 23.336 18.7201 23.042 19.2894 23.042C19.8587 23.042 20.1434 23.336 20.1434 23.924V24.358C20.4794 23.5553 21.1981 23.1073 22.2994 23.014C22.7007 22.9673 22.9247 23.196 22.9714 23.7C23.0181 24.1947 22.7754 24.47 22.2434 24.526L21.9354 24.554C20.7874 24.666 20.2134 25.254 20.2134 26.318V29.216C20.2134 29.8133 19.9194 30.112 19.3314 30.112ZM27.1824 30.14C26.4078 30.14 25.7404 29.9953 25.1804 29.706C24.6204 29.4167 24.1864 29.006 23.8784 28.474C23.5798 27.942 23.4304 27.312 23.4304 26.584C23.4304 25.8747 23.5751 25.254 23.8644 24.722C24.1631 24.19 24.5691 23.7747 25.0824 23.476C25.6051 23.168 26.1978 23.014 26.8604 23.014C27.8311 23.014 28.5964 23.322 29.1564 23.938C29.7258 24.554 30.0104 25.394 30.0104 26.458C30.0104 26.8033 29.7864 26.976 29.3384 26.976H25.1104C25.2411 28.1987 25.9411 28.81 27.2104 28.81C27.4531 28.81 27.7238 28.782 28.0224 28.726C28.3304 28.6607 28.6198 28.5533 28.8904 28.404C29.1331 28.264 29.3384 28.222 29.5064 28.278C29.6744 28.3247 29.7911 28.4227 29.8564 28.572C29.9311 28.7213 29.9404 28.8893 29.8844 29.076C29.8378 29.2533 29.7071 29.4073 29.4924 29.538C29.1658 29.7433 28.7878 29.8973 28.3584 30C27.9384 30.0933 27.5464 30.14 27.1824 30.14ZM26.9304 24.204C26.4171 24.204 26.0018 24.3627 25.6844 24.68C25.3671 24.9973 25.1758 25.4267 25.1104 25.968H28.5544C28.5171 25.3987 28.3584 24.9647 28.0784 24.666C27.8078 24.358 27.4251 24.204 26.9304 24.204ZM34.7703 30.14C33.9957 30.14 33.3283 29.9953 32.7683 29.706C32.2083 29.4167 31.7743 29.006 31.4663 28.474C31.1677 27.942 31.0183 27.312 31.0183 26.584C31.0183 25.8747 31.163 25.254 31.4523 24.722C31.751 24.19 32.157 23.7747 32.6703 23.476C33.193 23.168 33.7857 23.014 34.4483 23.014C35.419 23.014 36.1843 23.322 36.7443 23.938C37.3137 24.554 37.5983 25.394 37.5983 26.458C37.5983 26.8033 37.3743 26.976 36.9263 26.976H32.6983C32.829 28.1987 33.529 28.81 34.7983 28.81C35.041 28.81 35.3117 28.782 35.6103 28.726C35.9183 28.6607 36.2077 28.5533 36.4783 28.404C36.721 28.264 36.9263 28.222 37.0943 28.278C37.2623 28.3247 37.379 28.4227 37.4443 28.572C37.519 28.7213 37.5283 28.8893 37.4723 29.076C37.4257 29.2533 37.295 29.4073 37.0803 29.538C36.7537 29.7433 36.3757 29.8973 35.9463 30C35.5263 30.0933 35.1343 30.14 34.7703 30.14ZM34.5183 24.204C34.005 24.204 33.5897 24.3627 33.2723 24.68C32.955 24.9973 32.7637 25.4267 32.6983 25.968H36.1423C36.105 25.3987 35.9463 24.9647 35.6663 24.666C35.3957 24.358 35.013 24.204 34.5183 24.204Z" fill="white"/>
</svg>
