<svg width="17" height="16" viewBox="0 0 17 16" fill="none" xmlns="http://www.w3.org/2000/svg">
<path d="M7.07341 1.39058C7.52244 0.00861001 9.47756 0.00860977 9.92658 1.39058L10.7451 3.90983C10.946 4.52786 11.5219 4.9463 12.1717 4.9463H14.8206C16.2737 4.9463 16.8779 6.80573 15.7023 7.65983L13.5593 9.21681C13.0336 9.59878 12.8136 10.2758 13.0144 10.8939L13.8329 13.4131C14.282 14.7951 12.7003 15.9443 11.5247 15.0902L9.38168 13.5332C8.85595 13.1512 8.14405 13.1512 7.61832 13.5332L5.47532 15.0902C4.29975 15.9443 2.71803 14.7951 3.16705 13.4131L3.98561 10.8939C4.18642 10.2758 3.96643 9.59878 3.4407 9.21681L1.2977 7.65983C0.122127 6.80573 0.72629 4.9463 2.17937 4.9463H4.82827C5.47811 4.9463 6.05405 4.52786 6.25486 3.90983L7.07341 1.39058Z" fill="#FFD336"/>
</svg>
