<svg width="14" height="14" viewBox="0 0 14 14" fill="none" xmlns="http://www.w3.org/2000/svg">
<path d="M2.278 13.102C1.904 13.102 1.59233 13 1.343 12.796C1.105 12.592 0.986 12.2917 0.986 11.895V5.69C0.986 5.29333 1.11067 4.993 1.36 4.789C1.60933 4.585 1.91533 4.483 2.278 4.483C2.64067 4.483 2.941 4.585 3.179 4.789C3.42833 4.993 3.553 5.29333 3.553 5.69V11.895C3.553 12.2917 3.42833 12.592 3.179 12.796C2.941 13 2.64067 13.102 2.278 13.102ZM2.278 3.123C1.82467 3.123 1.46767 3.00967 1.207 2.783C0.946333 2.545 0.816 2.22767 0.816 1.831C0.816 1.43433 0.946333 1.12267 1.207 0.896C1.46767 0.669333 1.82467 0.555999 2.278 0.555999C2.72 0.555999 3.07133 0.674999 3.332 0.913C3.604 1.13967 3.74 1.44567 3.74 1.831C3.74 2.22767 3.60967 2.545 3.349 2.783C3.08833 3.00967 2.73133 3.123 2.278 3.123ZM10.7542 4.449C11.7516 4.449 12.4939 4.74367 12.9812 5.333C13.4686 5.911 13.7122 6.78933 13.7122 7.968V11.895C13.7122 12.269 13.5932 12.5637 13.3552 12.779C13.1286 12.9943 12.8169 13.102 12.4202 13.102C12.0236 13.102 11.7119 12.9943 11.4852 12.779C11.2586 12.5637 11.1452 12.269 11.1452 11.895V8.087C11.1452 7.52033 11.0376 7.10667 10.8222 6.846C10.6182 6.58533 10.2952 6.455 9.85323 6.455C9.32056 6.455 8.88989 6.625 8.56123 6.965C8.24389 7.305 8.08523 7.75833 8.08523 8.325V11.895C8.08523 12.269 7.97189 12.5637 7.74523 12.779C7.51856 12.9943 7.20689 13.102 6.81023 13.102C6.41356 13.102 6.09623 12.9943 5.85823 12.779C5.63156 12.5637 5.51823 12.269 5.51823 11.895V5.656C5.51823 5.30467 5.63723 5.02133 5.87523 4.806C6.12456 4.59067 6.44189 4.483 6.82723 4.483C7.17856 4.483 7.46189 4.59067 7.67723 4.806C7.90389 5.01 8.01723 5.27633 8.01723 5.605V5.843C8.31189 5.38967 8.69156 5.044 9.15623 4.806C9.63223 4.568 10.1649 4.449 10.7542 4.449Z" fill="white"/>
</svg>
