<svg width="17" height="16" viewBox="0 0 17 16" fill="none" xmlns="http://www.w3.org/2000/svg">
<path d="M7.54894 1.54508C7.8483 0.623774 9.1517 0.623774 9.45106 1.54508L10.2696 4.06434C10.5374 4.88838 11.3053 5.4463 12.1717 5.4463H14.8206C15.7893 5.4463 16.1921 6.68592 15.4084 7.25532L13.2654 8.81231C12.5644 9.32159 12.2711 10.2243 12.5389 11.0484L13.3574 13.5676C13.6568 14.4889 12.6023 15.2551 11.8186 14.6857L9.67557 13.1287C8.9746 12.6194 8.0254 12.6194 7.32443 13.1287L5.18143 14.6857C4.39771 15.2551 3.34323 14.4889 3.64258 13.5676L4.46114 11.0484C4.72889 10.2243 4.43557 9.32159 3.73459 8.81231L1.59159 7.25532C0.807876 6.68592 1.21065 5.4463 2.17937 5.4463H4.82827C5.69473 5.4463 6.46264 4.88838 6.73039 4.06434L7.54894 1.54508Z" stroke="#FFD336"/>
</svg>
