<svg width="79" height="48" viewBox="0 0 79 48" fill="none" xmlns="http://www.w3.org/2000/svg">
<path d="M2.62567 47.1949C2.43164 47.1949 2.23557 47.137 2.06468 47.0165C1.62421 46.7061 1.518 46.0974 1.8298 45.6562C10.8961 32.7898 23.0996 29.8726 37.1244 37.2191C44.3769 41.0187 50.5001 41.3659 55.3251 38.2525C72.0143 27.4822 77.0569 2.40371 77.029 1.92094C76.9977 1.38311 77.4089 0.921512 77.9467 0.890193C78.4955 0.849344 78.9462 1.27008 78.9782 1.80791C79.0953 3.82649 74.0253 28.5067 56.3843 39.8928C50.9236 43.4153 44.14 43.0988 36.2177 38.9492C22.9985 32.0249 11.9641 34.6595 3.42409 46.7818C3.23416 47.0521 2.93271 47.1949 2.62567 47.1949Z" fill="#FFD336"/>
<path d="M12.1242 47.9112H1.58203C1.28792 47.9112 1.01084 47.7791 0.825666 47.551C0.640488 47.3237 0.566958 47.0241 0.626877 46.7368L2.59718 37.2082C2.70678 36.6799 3.22011 36.3375 3.75114 36.4498C4.27943 36.5594 4.61849 37.0755 4.50956 37.6038L2.78099 45.9592H12.125C12.6635 45.9592 13.1012 46.3963 13.1012 46.9355C13.1006 47.474 12.6635 47.9111 12.1243 47.9111L12.1242 47.9112Z" fill="#FFD336"/>
</svg>
