<svg width="44" height="44" viewBox="0 0 44 44" fill="none" xmlns="http://www.w3.org/2000/svg">
<circle cx="22" cy="22" r="22" fill="#3BBCA7"/>
<path d="M21.7754 36.813C25.5891 36.813 29.2467 35.2981 31.9435 32.6012C34.6403 29.9045 36.1553 26.247 36.1553 22.4331C36.1553 18.6193 34.6404 14.9618 31.9435 12.265C29.2468 9.56823 25.5892 8.05322 21.7754 8.05322C17.9616 8.05322 14.3041 9.56817 11.6073 12.265C8.91051 14.9617 7.39551 18.6193 7.39551 22.4331C7.40034 26.2453 8.91696 29.9001 11.6125 32.5958C14.3083 35.2914 17.963 36.8081 21.7752 36.8129L21.7754 36.813ZM21.7754 10.8609C24.8436 10.8609 27.7863 12.0797 29.956 14.2491C32.1258 16.4185 33.3448 19.3609 33.345 22.4291C33.3452 25.4973 32.1268 28.4401 29.9574 30.6097C27.7882 32.7795 24.8458 33.9988 21.7779 33.9994C18.7096 33.9998 15.7665 32.7816 13.5968 30.6125C11.4268 28.4435 10.2074 25.5011 10.2065 22.433C10.2097 19.3655 11.4297 16.4247 13.5987 14.2556C15.7677 12.0865 18.7084 10.8666 21.7761 10.8634L21.7754 10.8609ZM23.0842 29.4803C23.0842 29.8745 22.9277 30.2527 22.6489 30.5314C22.3702 30.8101 21.992 30.9667 21.5978 30.9667C21.2037 30.9667 20.8257 30.8102 20.5468 30.5314C20.268 30.2527 20.1115 29.8745 20.1115 29.4803C20.1115 29.0862 20.268 28.708 20.5468 28.4293C20.8257 28.1505 21.2037 27.9939 21.5978 27.9939C21.9926 27.9939 22.3711 28.1509 22.65 28.4303C22.9289 28.7097 23.0851 29.0887 23.0843 29.4833L23.0842 29.4803ZM16.961 17.8959C16.8311 17.5265 16.8538 17.1204 17.0242 16.7676C17.431 15.9137 18.0701 15.1917 18.8685 14.6846C19.6669 14.1773 20.5919 13.9055 21.5376 13.9H21.5679C22.8876 13.9053 24.1543 14.4205 25.103 15.338C26.0519 16.2552 26.6093 17.5038 26.6589 18.8227C26.6927 19.9049 26.377 20.9692 25.7587 21.8579C25.1403 22.7468 24.2521 23.4128 23.2257 23.7574C23.2257 23.7574 23.0784 23.8086 23.0784 23.8957V25.0753H23.0782C23.0782 25.6035 22.7965 26.0917 22.3387 26.356C21.8812 26.6202 21.3174 26.6202 20.8599 26.356C20.4023 26.0917 20.1204 25.6035 20.1204 25.0753V23.8957C20.1272 23.2421 20.3385 22.6068 20.7249 22.0795C21.1115 21.5521 21.6534 21.1592 22.275 20.956C22.7027 20.811 23.0725 20.5325 23.3299 20.1614C23.5872 19.7903 23.7184 19.3462 23.7041 18.8949C23.6751 18.3484 23.4396 17.8333 23.0452 17.4541C22.6509 17.0748 22.127 16.8595 21.5798 16.8519C21.185 16.8561 20.7995 16.9711 20.467 17.184C20.1345 17.3968 19.8684 17.6988 19.6992 18.0554C19.5309 18.4137 19.2259 18.6893 18.8525 18.8207C18.4792 18.9521 18.0688 18.9281 17.7133 18.7543C17.3577 18.5806 17.0868 18.2714 16.961 17.8959V17.8959Z" fill="white"/>
</svg>
