<svg width="52" height="42" viewBox="0 0 52 42" fill="none" xmlns="http://www.w3.org/2000/svg">
<path opacity="0.5" d="M39.2 22.15C36.3 21.85 33.95 20.7 32.15 18.7C30.25 16.8 29.3 14.4 29.3 11.5C29.3 8.3 30.35 5.6 32.45 3.4C34.45 1.3 36.95 0.250005 39.95 0.250005C43.35 0.250005 46.15 1.5 48.35 4C50.45 6.5 51.5 10.15 51.5 14.95C51.5 24.35 48.2 32.6 41.6 39.7C40.4 41 39 41.65 37.4 41.65C36 41.65 34.75 41.1 33.65 40C32.45 39 31.85 37.8 31.85 36.4C31.85 35.2 32.35 34.05 33.35 32.95C36.35 29.75 38.3 26.15 39.2 22.15ZM10.4 22.15C7.5 21.85 5.15 20.7 3.35 18.7C1.45 16.8 0.499998 14.4 0.499998 11.5C0.499998 8.3 1.55 5.6 3.65 3.4C5.65 1.3 8.15 0.250005 11.15 0.250005C14.55 0.250005 17.35 1.5 19.55 4C21.65 6.5 22.7 10.15 22.7 14.95C22.7 24.35 19.4 32.6 12.8 39.7C11.6 41 10.2 41.65 8.6 41.65C7.2 41.65 5.95 41.1 4.85 40C3.65 39 3.05 37.8 3.05 36.4C3.05 35.2 3.55 34.05 4.55 32.95C7.55 29.75 9.5 26.15 10.4 22.15Z" fill="#32EACC"/>
</svg>
