<svg width="53" height="42" viewBox="0 0 53 42" fill="none" xmlns="http://www.w3.org/2000/svg">
<path opacity="0.5" d="M43.8 37.9C42.5 39.6 41.15 40.55 39.75 40.75C38.25 40.95 37 40.65 36 39.85C34.9 39.15 34.3 38.05 34.2 36.55C34 35.15 34.6 33.6 36 31.9C37.3 30.3 38.35 28.7 39.15 27.1C39.85 25.6 40.35 24.1 40.65 22.6C37.45 22.3 34.9 21.15 33 19.15C31.1 17.25 30.15 14.7 30.15 11.5C30.15 8.3 31.15 5.65 33.15 3.55C35.15 1.55 37.85 0.550001 41.25 0.550001C44.75 0.550001 47.5 1.75 49.5 4.15C51.5 6.55 52.5 9.9 52.5 14.2C52.5 17.8 51.95 21.55 50.85 25.45C49.65 29.45 47.3 33.6 43.8 37.9ZM14.55 37.9C13.25 39.6 11.9 40.55 10.5 40.75C9 40.95 7.75 40.65 6.75 39.85C5.65 39.15 5.05 38.05 4.95 36.55C4.75 35.15 5.35 33.6 6.75 31.9C8.05 30.3 9.1 28.7 9.9 27.1C10.6 25.6 11.1 24.1 11.4 22.6C8.2 22.3 5.65 21.15 3.75 19.15C1.85 17.25 0.899996 14.7 0.899996 11.5C0.899996 8.3 1.9 5.65 3.9 3.55C5.9 1.55 8.6 0.550001 12 0.550001C15.5 0.550001 18.25 1.75 20.25 4.15C22.25 6.55 23.25 9.9 23.25 14.2C23.25 17.8 22.7 21.55 21.6 25.45C20.4 29.45 18.05 33.6 14.55 37.9Z" fill="#E6EAF7"/>
</svg>
