<svg width="14" height="12" viewBox="0 0 14 12" fill="none" xmlns="http://www.w3.org/2000/svg">
<path d="M4.40272 12C9.68576 12 12.5754 7.38284 12.5754 3.37887C12.5754 3.24772 12.5754 3.11717 12.567 2.98721C13.1291 2.55829 13.6144 2.0272 14 1.41882C13.4758 1.66397 12.9197 1.82467 12.3502 1.89554C12.9499 1.51691 13.3987 0.921314 13.613 0.219634C13.0492 0.572601 12.4324 0.821335 11.7891 0.955095C11.356 0.469327 10.7833 0.147664 10.1594 0.0398822C9.53561 -0.0678997 8.89549 0.0442082 8.33815 0.358858C7.7808 0.673508 7.3373 1.17316 7.07627 1.78049C6.81524 2.38782 6.75123 3.06897 6.89416 3.71854C5.75219 3.65811 4.63502 3.34504 3.61518 2.79966C2.59534 2.25427 1.69561 1.48876 0.9744 0.552807C0.607091 1.21984 0.494592 2.00947 0.659808 2.76093C0.825024 3.51238 1.25553 4.16916 1.86368 4.59754C1.40655 4.58342 0.959378 4.45333 0.56 4.2183V4.25669C0.560181 4.95625 0.789746 5.6342 1.20976 6.17556C1.62977 6.71693 2.21437 7.08837 2.8644 7.22689C2.44153 7.34857 1.99784 7.36635 1.56744 7.27887C1.75106 7.88088 2.10842 8.40732 2.58956 8.78459C3.0707 9.16185 3.65157 9.3711 4.25096 9.38306C3.65542 9.87686 2.97343 10.242 2.24401 10.4575C1.51459 10.673 0.752042 10.7346 0 10.639C1.31357 11.5281 2.84196 11.9998 4.40272 11.9976" fill="white"/>
</svg>
