<svg width="48" height="48" viewBox="0 0 48 48" fill="none" xmlns="http://www.w3.org/2000/svg">
<circle cx="24" cy="24" r="24" fill="#E0DBFF"/>
<circle cx="24.5" cy="24.5" r="20.5" fill="#5140B8"/>
<path d="M30 27.1083V24.1585L35 22V29L30 27.1083Z" fill="white"/>
<path d="M27.1701 30.7726H17.3671C16.9325 30.7726 16.5158 30.5998 16.2084 30.2927C15.9011 29.9853 15.7285 29.5686 15.7285 29.1339V20.9534C15.7285 20.5188 15.9011 20.1021 16.2084 19.7947C16.5157 19.4875 16.9325 19.3148 17.3671 19.3148H27.1701C27.6048 19.3148 28.0215 19.4876 28.3288 19.7947C28.636 20.102 28.8088 20.5188 28.8088 20.9534V29.1464C28.8055 29.5788 28.6314 29.9925 28.3244 30.2971C28.0175 30.6017 27.6026 30.7727 27.1701 30.7727V30.7726Z" fill="white"/>
</svg>
