<svg width="24" height="29" viewBox="0 0 24 29" fill="none" xmlns="http://www.w3.org/2000/svg">
<path d="M12 18.8767C11.4154 18.8767 10.8308 18.8182 10.2461 18.6428V21.2153H13.7539V18.643C13.1692 18.8184 12.5846 18.8767 12 18.8767L12 18.8767Z" fill="white"/>
<path d="M7.9082 22.3846H16.0928V24.1386H7.9082V22.3846Z" fill="white"/>
<path d="M5.56934 25.3079H18.4307V28.2311H5.56934V25.3079Z" fill="white"/>
<path d="M19.9505 3.09221L20.1259 2.27369C20.2428 1.8059 20.1259 1.27977 19.7752 0.870513C19.4245 0.403146 18.8984 0.16925 18.3137 0.16925H5.74439C5.15973 0.16925 4.57513 0.403146 4.22439 0.87073C3.93218 1.28 3.7566 1.74755 3.87365 2.27391L4.04902 3.09221H0.249023L0.307549 3.73539C0.307549 4.08612 1.00903 12.0368 6.09495 12.4461L6.32885 13.5568C6.85495 15.9536 9.25202 17.7076 11.9995 17.7076C14.7473 17.7076 17.0856 15.9536 17.6702 13.5568L17.9041 12.4461C22.9902 12.0368 23.6915 4.08607 23.6915 3.73539L23.75 3.09221H19.9505ZM1.5352 4.26147H4.28298L5.80298 11.2182C2.70446 10.6337 1.76907 5.9567 1.5352 4.26147ZM18.1385 11.2187L19.7168 4.26147H22.4646C22.2307 5.95681 21.2953 10.6341 18.1385 11.2187V11.2187Z" fill="white"/>
</svg>
