<svg width="16" height="11" viewBox="0 0 16 11" fill="none" xmlns="http://www.w3.org/2000/svg">
<path d="M13.294 0H3.15045H3.15062C2.4623 0 1.8023 0.273317 1.31572 0.760053C0.828968 1.24663 0.555664 1.90664 0.555664 2.59496V8.02059V8.02043C0.555664 8.70875 0.828981 9.36875 1.31572 9.85533C1.8023 10.3421 2.4623 10.6154 3.15062 10.6154H13.2942H13.294C13.9824 10.6154 14.6424 10.3421 15.1289 9.85533C15.6157 9.36875 15.889 8.70875 15.889 8.02043V2.59479V2.59496C15.889 1.90664 15.6157 1.24663 15.1289 0.760053C14.6424 0.273304 13.9824 0 13.294 0ZM8.87097 6.48718L6.57105 7.66666V2.94872L11.1711 5.30769L8.87097 6.48718Z" fill="white"/>
</svg>
